<svg xmlns="http://www.w3.org/2000/svg"  viewBox="0 0 48 48" width="144px" height="144px" baseProfile="basic"><path d="M44,24H4c0,0.338,0,1.662,0,2c0,11.028,8.972,20,20,20s20-8.972,20-20C44,25.662,44,24.338,44,24z"/><circle cx="24" cy="24" r="19" fill="#fff"/><path d="M24,44C12.972,44,4,35.028,4,24S12.972,4,24,4s20,8.972,20,20S35.028,44,24,44z M24,6C14.075,6,6,14.075,6,24	s8.075,18,18,18s18-8.075,18-18S33.925,6,24,6z"/><path d="M17.235,41.291c-0.164-1.472-0.31-3.724,0.064-5.329c0.337-1.445,2.179-9.226,2.179-9.226s-0.556-1.112-0.556-2.758 c0-2.58,1.495-4.508,3.36-4.508c1.582,0,2.348,1.19,2.348,2.617c0,1.591-1.012,3.975-1.541,6.181 c-0.438,1.846,0.93,3.355,2.753,3.355c3.296,0,5.835-3.478,5.835-8.502c0-4.445-3.196-7.554-7.754-7.554 c-5.283,0-8.383,3.961-8.383,8.055c0,1.595,0.615,3.309,1.381,4.239c0.15,0.182,0.173,0.346,0.128,0.533 c-0.141,0.583-0.451,1.846-0.515,2.106c-0.082,0.337-0.269,0.41-0.62,0.246c-2.32-1.08-3.77-4.467-3.77-7.193 c0-5.858,4.253-11.237,12.267-11.237c6.441,0,11.446,4.59,11.446,10.726c0,6.4-4.034,11.547-9.632,11.547 c-1.883,0-3.651-0.976-4.258-2.133c0,0-0.93,3.547-1.153,4.417c-0.419,1.609-1.554,3.633-2.311,4.864 C18.206,41.952,17.317,41.824,17.235,41.291z"/></svg>