<svg xmlns="http://www.w3.org/2000/svg" xmlns:xlink="http://www.w3.org/1999/xlink" viewBox="0,0,256,256" width="100px" height="100px"><g fill="#000000" fill-rule="nonzero" stroke="none" stroke-width="1" stroke-linecap="butt" stroke-linejoin="miter" stroke-miterlimit="10" stroke-dasharray="" stroke-dashoffset="0" font-family="none" font-weight="none" font-size="none" text-anchor="none" style="mix-blend-mode: normal"><path d="M0,256v-256h256v256z" id="bgRectangle"></path></g><g fill="#ffffff" fill-rule="nonzero" stroke="none" stroke-width="1" stroke-linecap="butt" stroke-linejoin="miter" stroke-miterlimit="10" stroke-dasharray="" stroke-dashoffset="0" font-family="none" font-weight="none" font-size="none" text-anchor="none" style="mix-blend-mode: normal"><g transform="scale(2.56,2.56)"><path d="M52.15234,8c-0.41286,-0.01481 -0.79233,0.22576 -0.95508,0.60547l-2.50391,5.8418c-0.95664,2.23247 -0.91483,4.76537 0.2793,6.85156c-4.381,0.6147 -8.47933,2.11092 -12.11914,4.29102l-24.27734,-14.43555c-0.14392,-0.0859 -0.30712,-0.13426 -0.47461,-0.14062c-0.41286,-0.01481 -0.79233,0.22576 -0.95508,0.60547l-2.50195,5.8418c-1.37741,3.21186 -0.37308,6.85404 2.25391,9.05859c-1.71568,4.42612 -0.82542,9.17089 2.78516,12.25977c-1.58812,4.84892 0.2727,10.20794 4.70117,12.86523l2.63477,1.62109c-0.00054,0.07427 -0.00195,0.14832 -0.00195,0.22266c0,17.94147 14.56638,32.50781 32.50781,32.50781c17.94139,0 32.50781,-14.56538 32.50781,-32.50781c0,-3.40483 -0.52739,-6.68633 -1.5,-9.77148c3.36857,-7.28345 0.78347,-16.1188 -6.27148,-20.35156c-0.0013,-0.00065 -0.0026,-0.0013 -0.00391,-0.00195l-25.63086,-15.22266c-0.14392,-0.0859 -0.30712,-0.13426 -0.47461,-0.14062zM52.58594,10.44141l24.65039,14.64063c5.53618,3.32386 7.90893,9.84897 6.23633,15.75c-4.93971,-11.66169 -16.49429,-19.85156 -29.94726,-19.85156c-0.77366,0 -1.5404,0.02877 -2.30078,0.08203c-0.00574,-0.0079 -0.0116,-0.01571 -0.01758,-0.02344c-1.35334,-1.62435 -1.54114,-3.78523 -0.67578,-5.80469zM12.53516,13.45508l24.69922,14.6875c6.69809,4.02165 8.78982,12.72359 4.64844,19.34961c-4.03392,6.45484 -12.46542,8.48445 -18.99414,4.57422l-0.00977,-0.00586l-3.45508,-2.125c-0.00324,-0.00197 -0.0065,-0.00392 -0.00977,-0.00586c-3.80313,-2.28202 -5.38163,-6.96916 -3.73437,-11.08594c0.16721,-0.41933 0.03276,-0.8987 -0.32813,-1.16992c-3.38895,-2.54171 -4.14826,-6.4643 -2.58203,-10.4668l0.22461,-0.55859c0.17662,-0.43935 0.02091,-0.94236 -0.37305,-1.20508c-2.35935,-1.57319 -3.25612,-4.5877 -2.13867,-7.19336c0,-0.00065 0,-0.0013 0,-0.00195zM53.52539,22.98047c1.59707,0 3.16477,0.12336 4.69531,0.35938c1.37255,1.58284 2.64122,3.25716 3.7832,5.02344c0.0964,0.15137 0.26653,0.23948 0.44579,0.23086c0.17926,-0.00862 0.34015,-0.11264 0.42159,-0.27256c0.08144,-0.15992 0.07093,-0.35122 -0.02754,-0.50127c-0.94564,-1.4626 -1.98024,-2.86071 -3.08203,-4.20117c4.66152,0.9666 8.92545,3.00108 12.54102,5.82813c-0.0511,0.4915 -0.15113,1.04551 -0.41797,1.62109c-0.6458,1.39306 -2.10112,2.79777 -5.70508,2.94336c-0.47051,-1.0552 -0.96545,-2.09637 -1.51172,-3.10742c-0.08661,-0.16674 -0.25938,-0.27085 -0.44727,-0.26953c-0.17658,0.00169 -0.33917,0.09638 -0.42777,0.24913c-0.0886,0.15275 -0.09007,0.3409 -0.00387,0.49501c0.46674,0.86386 0.90022,1.74763 1.31055,2.64453c-6.2107,-0.08575 -10.5374,-1.74451 -14.41992,-3.44336c-3.79537,-1.66072 -7.20729,-3.35359 -11.4668,-3.51367c-0.13766,-0.0966 -0.27837,-0.19038 -0.41992,-0.2832c4.36862,-2.41637 9.38266,-3.80273 14.73242,-3.80273zM40.63281,28.18164c3.37445,0.43233 6.29196,1.84749 9.64453,3.31445c4.00507,1.75248 8.62587,3.53126 15.25586,3.54102c0.82927,1.93818 1.53245,3.94191 2.08398,6.00977c-0.61087,-0.02325 -1.22071,-0.04308 -1.82227,-0.04492c-9.35926,-0.02865 -17.4043,2.39302 -20.42187,3.49023c1.67257,-5.84022 -0.13547,-12.22777 -4.74023,-16.31055zM73.21875,30.1875c4.3549,3.68346 7.66321,8.56337 9.41406,14.13867c-4.5696,-2.01304 -9.36015,-2.95211 -13.95898,-3.22461c-0.54504,-2.10367 -1.25043,-4.14075 -2.07617,-6.11523c3.62283,-0.2579 5.43441,-1.8567 6.19531,-3.49805c0.20597,-0.44429 0.33973,-0.88593 0.42578,-1.30078zM65.76172,42.03125c0.69721,0.00112 1.40808,0.03414 2.11719,0.06445c0.54359,2.25781 0.91565,4.58163 1.10156,6.95898c-9.38842,0.2924 -16.07838,6.7773 -21.71094,13.1582c-2.88181,3.26469 -5.50375,6.51042 -8.06445,8.91406c-2.45293,2.30248 -4.82242,3.78611 -7.2832,3.9082c-5.30047,-5.31436 -8.64179,-12.57686 -8.88086,-20.625c7.25854,3.56313 16.17632,1.12044 20.53711,-5.85742c0.58514,-0.93619 1.05974,-1.91022 1.42969,-2.90625c0.06784,0.00322 0.13562,-0.00742 0.19922,-0.03125c2.44986,-0.94089 10.84255,-3.59964 20.55469,-3.58398zM68.91211,42.13672c4.6728,0.29922 9.52439,1.2991 14.08203,3.44336c0.67423,2.52242 1.03906,5.17184 1.03906,7.9082c0,6.37995 -1.95641,12.29715 -5.29883,17.19141c0.40633,-2.36006 0.81547,-5.59997 0.70703,-8.94531c-0.10064,-3.10454 -0.64352,-6.23833 -2.12891,-8.65039c-1.43673,-2.33304 -3.82023,-3.9338 -7.33008,-4.03711c-0.18096,-2.35839 -0.5444,-4.66537 -1.07031,-6.91016zM70.05273,50.04883c3.16532,0.1149 5.12819,1.48199 6.4082,3.56055c1.33752,2.17194 1.88493,5.15074 1.98242,8.1582c0.1411,4.35275 -0.63173,8.66356 -1.07422,10.75195c-4.727,5.91613 -11.60804,10.03026 -19.46289,11.1582c3.38827,-3.6415 6.19058,-7.83587 8.25195,-12.43555c0.07186,-0.1545 0.06011,-0.33496 -0.0312,-0.47883c-0.0913,-0.14387 -0.24958,-0.23135 -0.41998,-0.23211c-0.20067,-0.00171 -0.38293,0.11672 -0.46289,0.30078c-2.18283,4.87068 -5.22144,9.26993 -8.91211,13.0293c-0.92485,0.08424 -1.85967,0.13477 -2.80664,0.13477c-7.97155,0 -15.22202,-3.05422 -20.6543,-8.05273c2.4713,-0.41073 4.76143,-1.97012 7.01758,-4.08789c2.63924,-2.47736 5.26597,-5.73911 8.12891,-8.98242c5.6044,-6.349 12.06185,-12.55896 21.03516,-12.82031c0.04677,0.83735 0.08008,1.67821 0.08008,2.52734c0,2.49174 -0.20507,4.93424 -0.59766,7.31445c-0.03551,0.17908 0.02941,0.36328 0.16934,0.48053c0.13993,0.11725 0.33265,0.14893 0.50275,0.08263c0.1701,-0.0663 0.29056,-0.22003 0.31424,-0.40105c0.40142,-2.43379 0.61133,-4.9303 0.61133,-7.47656c0,-0.85046 -0.03411,-1.69219 -0.08008,-2.53125zM68.45508,62.39648c-0.23824,-0.00347 -0.44584,0.16163 -0.49609,0.39453c-0.32729,1.40113 -0.71991,2.77619 -1.17578,4.12305c-0.06076,0.17014 -0.02502,0.35983 0.09349,0.4962c0.11851,0.13637 0.30137,0.1982 0.47832,0.16174c0.17695,-0.03645 0.32048,-0.16552 0.37545,-0.33763c0.46613,-1.37714 0.86842,-2.78392 1.20313,-4.2168c0.037,-0.14823 0.0042,-0.30525 -0.08905,-0.42628c-0.09324,-0.12103 -0.2367,-0.19279 -0.38947,-0.19482z"></path></g></g></svg>