<?xml version="1.0" encoding="UTF-8" standalone="no" ?>
<!DOCTYPE svg PUBLIC "-//W3C//DTD SVG 1.1//EN" "http://www.w3.org/Graphics/SVG/1.1/DTD/svg11.dtd">
<svg xmlns="http://www.w3.org/2000/svg" xmlns:xlink="http://www.w3.org/1999/xlink" version="1.1" width="1080" height="1080" viewBox="0 0 1080 1080" xml:space="preserve">
<desc>Created with Fabric.js 5.2.4</desc>
<defs>
</defs>
<g transform="matrix(1 0 0 1 540 540)" id="603d70ee-f1ff-47d7-af38-d9fcf87e49f8"  >
</g>
<g transform="matrix(1 0 0 1 540 540)" id="f49f02b6-c2e3-4dc6-b328-e80be471a18a"  >
<rect style="stroke: none; stroke-width: 1; stroke-dasharray: none; stroke-linecap: butt; stroke-dashoffset: 0; stroke-linejoin: miter; stroke-miterlimit: 4; fill: rgb(255,255,255); fill-rule: nonzero; opacity: 1; visibility: hidden;" vector-effect="non-scaling-stroke"  x="-540" y="-540" rx="0" ry="0" width="1080" height="1080" />
</g>
<g transform="matrix(1 0 0 1 540 540)"  >
<path style="stroke: none; stroke-width: 1; stroke-dasharray: none; stroke-linecap: butt; stroke-dashoffset: 0; stroke-linejoin: miter; stroke-miterlimit: 4; fill: rgb(255,244,244); fill-rule: nonzero; opacity: 1;" vector-effect="non-scaling-stroke"  transform=" translate(-512, -508.89)" d="M 1024 512 C 1024 229.23016 794.76978 0 512 0 C 229.23022000000003 0 0 229.23016 0 512 C 0 767.554 187.231 979.37012 432 1017.7777699999999 L 432 660 L 302 660 L 302 512 L 432 512 L 432 399.2 C 432 270.87982 508.43854 200 625.38922 200 C 681.40765 200 740 210 740 210 L 740 336 L 675.43713 336 C 611.83508 336 592 375.46667 592 415.95728 L 592 512 L 734 512 L 711.3 660 L 592 660 L 592 1017.7777699999999 C 836.769 979.37012 1024 767.554 1024 512 Z" stroke-linecap="round" />
</g>
<g transform="matrix(1 0 0 1 549 640)"  >
<path style="stroke: none; stroke-width: 1; stroke-dasharray: none; stroke-linecap: butt; stroke-dashoffset: 0; stroke-linejoin: miter; stroke-miterlimit: 4; fill: rgb(0,0,0); fill-rule: nonzero; opacity: 1;" vector-effect="non-scaling-stroke"  transform=" translate(-521, -612)" d="M 711.3 660 L 734 512 L 592 512 L 592 415.95728 C 592 375.46667 611.83508 336 675.43713 336 L 740 336 L 740 210 C 740 210 681.40765 200 625.38922 200 C 508.43854 200 432 270.87982 432 399.2 L 432 512 L 302 512 L 302 660 L 432 660 L 432 1017.7777699999999 C 485.01069878639987 1026.0740766087156 538.9893012136002 1026.0740766087158 592.0000000000001 1017.7777699999999 L 592 660 Z" stroke-linecap="round" />
</g>
</svg>